{
  "accessors": [
    {
      "bufferView": 2,
      "componentType": 5126,
      "count": 21619,
      "max": [
        0.6297675967216492,
        2.3842735290527344,
        0.7701129913330078
      ],
      "min": [
        -0.7472862601280212,
        -0.0023589699994772673,
        -0.8475620150566101
      ],
      "type": "VEC3"
    },
    {
      "bufferView": 2,
      "byteOffset": 259428,
      "componentType": 5126,
      "count": 21619,
      "max": [
        0.9999167919158936,
        0.9999637007713318,
        0.9999967813491821
      ],
      "min": [
        -0.9999167919158936,
        -0.9999989867210388,
        -0.9998591542243958
      ],
      "type": "VEC3"
    },
    {
      "bufferView": 1,
      "componentType": 5126,
      "count": 21619,
      "max": [
        0.9923099875450134,
        0.9929599761962891
      ],
      "min": [
        0.007029999978840351,
        0.003859996795654297
      ],
      "type": "VEC2"
    },
    {
      "bufferView": 1,
      "byteOffset": 172952,
      "componentType": 5126,
      "count": 21619,
      "max": [
        0.9923099875450134,
        0.9929599761962891
      ],
      "min": [
        0.007029999978840351,
        0.003859996795654297
      ],
      "type": "VEC2"
    },
    {
      "bufferView": 1,
      "byteOffset": 345904,
      "componentType": 5126,
      "count": 21619,
      "max": [
        0.9923099875450134,
        0.9929599761962891
      ],
      "min": [
        0.007029999978840351,
        0.003859996795654297
      ],
      "type": "VEC2"
    },
    {
      "bufferView": 0,
      "componentType": 5125,
      "count": 116436,
      "type": "SCALAR"
    }
  ],
  "asset": {
    "extras": {
      "author": "Sufi_Artist (https://sketchfab.com/Sufi_Artist)",
      "license": "CC-BY-4.0 (http://creativecommons.org/licenses/by/4.0/)",
      "source": "https://sketchfab.com/3d-models/adorable-chick-3d-model-a0cde8944cc34d1a81c6ebb343ea1289",
      "title": "\"Adorable Chick – 3D Model\""
    },
    "generator": "Sketchfab-16.45.0",
    "version": "2.0"
  },
  "bufferViews": [
    {
      "buffer": 0,
      "byteLength": 465744,
      "name": "floatBufferViews",
      "target": 34963
    },
    {
      "buffer": 0,
      "byteLength": 518856,
      "byteOffset": 465744,
      "byteStride": 8,
      "name": "floatBufferViews",
      "target": 34962
    },
    {
      "buffer": 0,
      "byteLength": 518856,
      "byteOffset": 984600,
      "byteStride": 12,
      "name": "floatBufferViews",
      "target": 34962
    }
  ],
  "buffers": [
    {
      "byteLength": 1503456,
      "uri": "scene.bin"
    }
  ],
  "extensionsRequired": [
    "KHR_materials_pbrSpecularGlossiness"
  ],
  "extensionsUsed": [
    "KHR_materials_pbrSpecularGlossiness"
  ],
  "images": [
    {
      "uri": "textures/material_diffuse.png"
    },
    {
      "uri": "textures/material_specularGlossiness.png"
    }
  ],
  "materials": [
    {
      "alphaMode": "MASK",
      "doubleSided": true,
      "extensions": {
        "KHR_materials_pbrSpecularGlossiness": {
          "diffuseFactor": [
            1.0,
            1.0,
            1.0,
            1.0
          ],
          "diffuseTexture": {
            "index": 0
          },
          "glossinessFactor": 1.0,
          "specularFactor": [
            1.0,
            1.0,
            1.0
          ],
          "specularGlossinessTexture": {
            "index": 1
          }
        }
      },
      "name": "material"
    }
  ],
  "meshes": [
    {
      "name": "Object_0",
      "primitives": [
        {
          "attributes": {
            "NORMAL": 1,
            "POSITION": 0,
            "TEXCOORD_0": 2,
            "TEXCOORD_1": 3,
            "TEXCOORD_2": 4
          },
          "indices": 5,
          "material": 0,
          "mode": 4
        }
      ]
    }
  ],
  "nodes": [
    {
      "children": [
        1
      ],
      "matrix": [
        1.0,
        0.0,
        0.0,
        0.0,
        0.0,
        2.220446049250313e-16,
        -1.0,
        0.0,
        0.0,
        1.0,
        2.220446049250313e-16,
        0.0,
        0.0,
        0.0,
        0.0,
        1.0
      ],
      "name": "Sketchfab_model"
    },
    {
      "children": [
        2
      ],
      "name": "root"
    },
    {
      "children": [
        3
      ],
      "matrix": [
        1.0,
        0.0,
        0.0,
        0.0,
        0.0,
        2.220446049250313e-16,
        1.0,
        0.0,
        0.0,
        -1.0,
        2.220446049250313e-16,
        0.0,
        0.0,
        0.0,
        0.0,
        1.0
      ],
      "name": "GLTF_SceneRootNode"
    },
    {
      "children": [
        4
      ],
      "name": "root_0"
    },
    {
      "children": [
        5
      ],
      "matrix": [
        0.21452824771404266,
        -0.0,
        -7.991799523203174e-10,
        0.0,
        0.0,
        0.21452824771404266,
        0.0,
        0.0,
        7.991799523203174e-10,
        0.0,
        0.21452824771404266,
        0.0,
        0.012605535797774792,
        -0.25549399852752686,
        0.26430657505989075,
        1.0
      ],
      "name": "node_id96_1"
    },
    {
      "mesh": 0,
      "name": "Object_5"
    }
  ],
  "samplers": [
    {
      "magFilter": 9729,
      "minFilter": 9987,
      "wrapS": 10497,
      "wrapT": 10497
    }
  ],
  "scene": 0,
  "scenes": [
    {
      "name": "Sketchfab_Scene",
      "nodes": [
        0
      ]
    }
  ],
  "textures": [
    {
      "sampler": 0,
      "source": 0
    },
    {
      "sampler": 0,
      "source": 1
    }
  ]
}
